<svg width="393" height="195" viewBox="0 0 393 195" fill="none" xmlns="http://www.w3.org/2000/svg">
<path d="M196.41 50.5308C196.41 50.5308 191.28 93.7515 124.46 91.3237C124.46 91.3237 83.9203 87.722 89.6775 122.405C89.6775 122.405 35.5653 117.176 33.0297 177.151C33.0297 177.151 4.09425 175.444 1.02173 195H-120V0H361.73H513V195H391.799C391.799 195 392.754 176.858 359.791 177.151C359.791 177.151 361.223 121.712 303.143 122.352C303.143 122.352 311.496 95.1389 273.731 91.4838C273.701 91.4838 213.503 101.035 196.41 50.5308Z" fill="url(#paint0_linear_697_234)"/>
<defs>
<linearGradient id="paint0_linear_697_234" x1="196.5" y1="29.2058" x2="196.5" y2="151.717" gradientUnits="userSpaceOnUse">
<stop stop-color="#FFAE51"/>
<stop offset="0.9888" stop-color="#E87C00"/>
</linearGradient>
</defs>
</svg>
